<svg width="42" height="136" viewBox="0 0 42 136" fill="none" xmlns="http://www.w3.org/2000/svg">
<rect x="18" width="6" height="136" fill="#2F2C7E"/>
<path d="M3.70767 69.3673C1.65998 67.5146 1.65998 64.5108 3.70767 62.6581L17.3065 50.3543C19.3542 48.5017 22.6742 48.5017 24.7219 50.3543L38.2923 62.6324C40.34 64.4851 40.34 67.4889 38.2923 69.3415L24.6935 81.6453C22.6458 83.498 19.3258 83.498 17.2781 81.6453L3.70767 69.3673Z" fill="#2F2C7E"/>
<path d="M6.70767 69.4659C4.65998 67.6132 4.65998 64.6094 6.70767 62.7568L17.3538 53.1245C19.4015 51.2718 22.7215 51.2718 24.7692 53.1245L35.2923 62.6454C37.34 64.4981 37.34 67.5019 35.2923 69.3546L24.6462 78.9869C22.5985 80.8395 19.2785 80.8395 17.2308 78.9869L6.70767 69.4659Z" fill="white"/>
</svg>
